<svg width="13" height="22" viewBox="0 0 13 22" fill="none" xmlns="http://www.w3.org/2000/svg">
<path d="M1.71036 21.9998C1.06361 21.7807 0.669908 21.2539 0.249095 20.7753C-0.0948976 20.3844 -0.059877 19.7508 0.267735 19.3436C0.34399 19.2492 0.430412 19.1622 0.516834 19.0762C3.15694 16.4498 5.79761 13.8239 8.43997 11.1992C8.50041 11.1391 8.57836 11.0975 8.65913 11.0391C8.56085 10.9363 8.5038 10.8745 8.44449 10.815C5.78292 8.16833 3.12192 5.52224 0.461479 2.87559C-0.0129945 2.40378 -0.157031 1.82131 0.197129 1.34893C0.523047 0.914192 0.930303 0.521575 1.36354 0.190744C1.7708 -0.119867 2.31983 -0.0283122 2.72313 0.300834C2.78414 0.350824 2.84288 0.403622 2.8988 0.459229C6.11505 3.65633 9.33074 6.85399 12.5459 10.0517C13.0277 10.5308 13.1322 11.0891 12.8294 11.6058C12.7543 11.7333 12.6509 11.8479 12.5447 11.9535C9.33074 15.1529 6.11675 18.3522 2.89372 21.542C2.69828 21.7352 2.4232 21.8492 2.1854 21.9998H1.71036Z" fill="white"/>
</svg>
