<svg width="178" height="29" viewBox="0 0 178 29" fill="none" xmlns="http://www.w3.org/2000/svg">
<path d="M10.3639 9.02767L10.1365 9.50946L9.60983 9.58948L1.5028 10.8212C1.50278 10.8212 1.50276 10.8212 1.50274 10.8212C1.28489 10.8543 1.11014 11.0066 1.03389 11.252C0.957186 11.4989 1.00872 11.759 1.19194 11.9457L1.19204 11.9458L7.05846 17.9249L7.41354 18.2868L7.33147 18.7872L5.94657 27.2298C5.89899 27.5199 6.01697 27.7518 6.1923 27.885C6.36359 28.0151 6.56719 28.0404 6.76716 27.9305L14.0185 23.9445L14.5002 23.6796L14.9819 23.9445L22.2332 27.9305C22.4332 28.0404 22.6368 28.0151 22.8081 27.885C22.9834 27.7518 23.1014 27.5199 23.0538 27.2298C23.0538 27.2298 23.0538 27.2298 23.0538 27.2298L21.6689 18.7872L21.5869 18.2869L21.9419 17.925L27.808 11.9458L28.5201 12.6444L27.808 11.9458C27.9913 11.759 28.0428 11.4987 27.9661 11.2519C27.8899 11.0065 27.7152 10.8542 27.4974 10.8212L27.4973 10.8212L19.3902 9.58948L18.8635 9.50946L18.6361 9.02769L15.0104 1.3464L15.0104 1.34638C14.7924 0.884541 14.2075 0.88454 13.9895 1.34638L13.0852 0.919539L13.9895 1.34638L10.3639 9.02767Z" stroke="#FFDF34" stroke-width="2"/>
<path d="M47.3639 9.02767L47.1365 9.50946L46.6098 9.58948L38.5028 10.8212C38.5028 10.8212 38.5028 10.8212 38.5027 10.8212C38.2849 10.8543 38.1101 11.0066 38.0339 11.252C37.9572 11.4989 38.0087 11.759 38.1919 11.9457L38.192 11.9458L44.0585 17.9249L44.4135 18.2868L44.3315 18.7872L42.9466 27.2298C42.899 27.5199 43.017 27.7518 43.1923 27.885C43.3636 28.0151 43.5672 28.0404 43.7672 27.9305L51.0185 23.9445L51.5002 23.6796L51.9819 23.9445L59.2332 27.9305C59.4332 28.0404 59.6368 28.0151 59.8081 27.885C59.9834 27.7518 60.1014 27.5199 60.0538 27.2298C60.0538 27.2298 60.0538 27.2298 60.0538 27.2298L58.6689 18.7872L58.5869 18.2869L58.9419 17.925L64.808 11.9458L65.5201 12.6444L64.808 11.9458C64.9913 11.759 65.0428 11.4987 64.9661 11.2519C64.8899 11.0065 64.7152 10.8542 64.4974 10.8212L64.4973 10.8212L56.3902 9.58948L55.8635 9.50946L55.6361 9.02769L52.0104 1.3464L52.0104 1.34638C51.7924 0.884541 51.2075 0.88454 50.9895 1.34638L50.0852 0.919539L50.9895 1.34638L47.3639 9.02767Z" stroke="#FFDF34" stroke-width="2"/>
<path d="M84.6844 9.03959L84.453 9.51357L83.9311 9.59021L75.5445 10.8219C75.5445 10.8219 75.5445 10.8219 75.5445 10.8219C75.0374 10.8964 74.8054 11.5486 75.1965 11.9337L75.1966 11.9338L81.2653 17.9129L81.6365 18.2787L81.5493 18.7926L80.1167 27.2352C80.0228 27.7888 80.587 28.159 81.0296 27.9238L88.531 23.9377L89.0002 23.6884L89.4694 23.9377L96.9708 27.9238C97.4134 28.159 97.9776 27.7888 97.8837 27.2352C97.8837 27.2352 97.8837 27.2352 97.8837 27.2352L96.4511 18.7926L96.3639 18.2788L96.7351 17.913L102.803 11.9338L103.505 12.6456L102.803 11.9338C103.195 11.5482 102.962 10.8963 102.456 10.8219L102.456 10.8219L94.069 9.59021L93.5471 9.51357L93.3157 9.03961L89.5649 1.35832L89.5649 1.3583C89.3316 0.880566 88.6683 0.880566 88.435 1.3583L87.5393 0.920948L88.435 1.35831L84.6844 9.03959Z" stroke="#FFDF34" stroke-width="2"/>
<path d="M121.364 9.02767L121.137 9.50946L120.61 9.58948L112.503 10.8212C112.503 10.8212 112.503 10.8212 112.503 10.8212C112.285 10.8543 112.11 11.0066 112.034 11.252C111.957 11.4989 112.009 11.759 112.192 11.9457L112.192 11.9458L118.058 17.9249L118.414 18.2868L118.331 18.7872L116.947 27.2298C116.899 27.5199 117.017 27.7518 117.192 27.885C117.364 28.0151 117.567 28.0404 117.767 27.9305L125.018 23.9445L125.5 23.6796L125.982 23.9445L133.233 27.9305C133.433 28.0404 133.637 28.0151 133.808 27.885C133.983 27.7518 134.101 27.5199 134.054 27.2298C134.054 27.2298 134.054 27.2298 134.054 27.2298L132.669 18.7872L132.587 18.2869L132.942 17.925L138.808 11.9458L139.52 12.6444L138.808 11.9458C138.991 11.759 139.043 11.4987 138.966 11.2519C138.89 11.0065 138.715 10.8542 138.497 10.8212L138.497 10.8212L130.39 9.58948L129.864 9.50946L129.636 9.02769L126.01 1.3464L126.01 1.34638C125.792 0.884541 125.208 0.88454 124.99 1.34638L124.085 0.919539L124.99 1.34638L121.364 9.02767Z" stroke="#FFDF34" stroke-width="2"/>
<path d="M159.364 9.02767L159.137 9.50946L158.61 9.58948L150.503 10.8212C150.503 10.8212 150.503 10.8212 150.503 10.8212C150.285 10.8543 150.11 11.0066 150.034 11.252C149.957 11.4989 150.009 11.759 150.192 11.9457L150.192 11.9458L156.058 17.9249L156.414 18.2868L156.331 18.7872L154.947 27.2298C154.899 27.5199 155.017 27.7518 155.192 27.885C155.364 28.0151 155.567 28.0404 155.767 27.9305L163.018 23.9445L163.5 23.6796L163.982 23.9445L171.233 27.9305C171.433 28.0404 171.637 28.0151 171.808 27.885C171.983 27.7518 172.101 27.5199 172.054 27.2298C172.054 27.2298 172.054 27.2298 172.054 27.2298L170.669 18.7872L170.587 18.2869L170.942 17.925L176.808 11.9458L177.52 12.6444L176.808 11.9458C176.991 11.759 177.043 11.4987 176.966 11.2519C176.89 11.0065 176.715 10.8542 176.497 10.8212L176.497 10.8212L168.39 9.58948L167.864 9.50946L167.636 9.02769L164.01 1.3464L164.01 1.34638C163.792 0.884541 163.208 0.88454 162.99 1.34638L162.085 0.919539L162.99 1.34638L159.364 9.02767Z" stroke="#FFDF34" stroke-width="2"/>
</svg>
