<svg width="21" height="22" viewBox="0 0 21 22" fill="none" xmlns="http://www.w3.org/2000/svg">
<path d="M2.33438 9.97501C2.0826 9.21402 1.84632 8.50048 1.61098 7.78693C1.15532 6.404 0.700606 5.02107 0.246831 3.63719C-0.0829314 2.63381 0.168383 1.72486 0.956618 1.06063C1.64292 0.481436 2.63972 0.408156 3.5219 0.875083C8.60174 3.56391 13.6816 6.25274 18.761 8.94298C19.5835 9.37844 20.0509 10.0535 20.0518 10.9939C20.0528 11.9343 19.5882 12.6131 18.7666 13.0486C13.6872 15.7397 8.60691 18.429 3.52613 21.1169C2.62375 21.5947 1.63258 21.5157 0.942524 20.9225C0.154758 20.2446 -0.0848123 19.3568 0.251996 18.3417C0.924673 16.3161 1.60252 14.292 2.27097 12.265C2.32499 12.102 2.3978 12.0546 2.56738 12.0551C4.32376 12.0621 6.08061 12.0565 7.837 12.0616C8.26681 12.063 8.62194 11.9268 8.854 11.5566C9.27348 10.8863 8.83709 10.0178 8.04885 9.9426C7.95866 9.93415 7.86706 9.93555 7.77593 9.93555C6.05243 9.93509 4.32893 9.93462 2.60543 9.93696C2.51524 9.93696 2.42458 9.96092 2.33485 9.9736L2.33438 9.97501Z" fill="white" fill-opacity="0.5"/>
</svg>
