<svg width="175" height="178" viewBox="0 0 175 178" fill="none" xmlns="http://www.w3.org/2000/svg">
<path d="M71.2189 149.788C74.3725 154.943 79.8421 156.544 83.1201 150.72C86.9484 143.958 94.5229 140.412 101.595 137.275C108.177 134.362 114.737 131.461 121.319 128.548C126.673 126.166 132.062 123.794 136.878 120.481C142.937 116.304 147.376 111.11 148.861 103.867C149.913 98.7373 149.124 93.2809 146.689 88.6559C146.119 87.5662 145.448 86.5054 144.455 85.8077C143.618 85.2268 142.614 84.9196 141.645 84.6217C139.977 84.136 138.275 83.6409 136.544 83.8125C134.005 84.0665 131.882 85.706 129.742 87.0599C127.602 88.4137 125.004 89.5884 122.583 88.7691C124.323 89.1244 126.013 87.9119 127.132 86.5269C128.251 85.142 129.102 83.4978 130.479 82.4071C134.469 79.2465 141.041 81.8371 144.944 78.5785C146.611 77.1725 147.393 74.9477 147.398 72.7575C147.38 70.5802 146.69 68.4657 145.757 66.4918C143.567 61.7262 140.152 57.5494 135.943 54.4515C134.253 53.2105 132.446 52.1254 130.419 51.5808C124.585 50.0126 119.712 53.3288 115.901 57.3616C114.415 58.9288 113.649 61.0266 112.606 62.9001C111.54 64.7863 109.98 66.6331 107.869 66.9649C110.283 65.2164 110.47 63.1874 110.367 60.5565C110.249 57.8463 112.452 55.8352 113.49 53.492C114.857 50.3381 114.378 46.5945 112.884 43.496C109.326 36.209 100.76 31.3406 92.8143 31.7896C88.9778 31.9945 85.0223 32.5046 81.7532 34.5102C79.2997 35.9859 77.2859 38.4788 76.7486 41.3311C76.4859 42.6652 76.9917 44.2059 77.1762 45.5479C77.3178 46.5599 77.4687 47.5369 77.382 48.5624C77.2601 50.1404 76.5605 51.638 76.102 53.1443C75.6214 54.6633 75.3922 56.3623 76.0973 57.788C74.8426 56.1771 74.2578 54.0908 74.5361 52.0678C74.7068 50.7277 75.2992 49.3511 75.0227 48.0032C74.7368 46.6902 74.0515 45.4009 73.7401 44.0436C73.1161 41.1227 72.8336 37.9751 70.9656 35.5063C69.1325 33.047 66.0211 31.7986 62.95 31.5912C59.901 31.371 56.8632 32.0903 53.9115 32.9077C49.9685 34.0017 46.0173 35.337 42.6932 37.7587C40.4434 39.3828 38.5416 41.4563 36.7574 43.5801C34.7495 45.981 32.809 48.5497 31.892 51.5622C30.9622 54.5525 31.212 58.1034 33.2349 60.4826C35.7782 63.5074 40.539 64.1878 42.6336 67.5602C43.724 69.2955 43.865 71.4311 44.465 73.3904C45.065 75.3497 46.4708 77.3758 48.5043 77.4729C46.9631 78.1262 45.1222 77.2381 44.0246 75.9504C42.9491 74.6499 42.3699 73.0333 41.5694 71.5445C40.8236 70.2015 39.8913 68.9957 38.7726 67.9271C37.7878 66.9882 36.6514 66.1958 35.3834 65.6863C30.8864 63.8782 25.5918 66.1074 22.4104 69.7473C18.2326 74.5242 15.9781 80.792 17.3096 86.8811C18.8886 94.2168 22.251 101.114 27.1769 106.783C31.3405 111.592 36.4887 115.448 41.5134 119.346C52.7538 128.08 63.8424 137.522 71.1805 149.721C71.1933 149.743 71.2189 149.788 71.2317 149.81L71.2189 149.788Z" fill="#E0E0E0"/>
<path d="M72.9948 159.049C72.718 158.263 72.4412 157.477 72.1866 156.678C71.5586 154.824 71.0098 152.953 70.4832 151.07C69.5265 147.572 68.7503 144.03 68.1104 140.468C66.6461 132.002 66.2745 123.23 66.5666 114.637C66.8186 106.894 67.7777 99.0981 69.6706 91.5906C72.2136 81.5795 77.3518 72.9965 83.6022 64.8061C84.5882 63.4978 85.4607 65.418 85.1865 66.3744C83.8353 71.293 82.2454 76.0537 80.9368 81.864C79.9445 86.2797 78.7694 90.8897 78.4246 95.4046C77.7645 103.974 78.1494 109.752 78.1595 117.284C78.1824 124.839 79.2163 132.252 80.7417 139.649C81.4642 143.252 82.3802 146.832 83.4638 150.344C83.9638 151.977 84.4859 153.597 85.0523 155.192C85.3418 156 85.6186 156.786 85.9304 157.582C86.8434 159.981 87.0372 161.288 86.7272 163.92C86.5295 165.572 85.3374 166.881 83.9266 167.606C83.3826 167.891 79.1729 168.932 79.0431 167.736C76.363 165.854 74.524 163.487 73.5612 160.644C73.3809 160.127 73.1657 159.601 72.9855 159.084L72.9948 159.049Z" fill="#F0F0F0"/>
</svg>
