<svg width="383" height="375" viewBox="0 0 383 375" fill="none" xmlns="http://www.w3.org/2000/svg">
<g clip-path="url(#clip0_136_17995)">
<path d="M128.672 68.6691L121.858 152.42L48.9382 194.357C37.2993 201.052 38.3825 218.166 50.773 223.316L128.395 255.595L145.721 337.798C148.486 350.919 165.115 355.161 173.86 344.978L228.647 281.175L312.276 290.041C325.624 291.456 334.818 276.965 327.833 265.519L284.072 193.808L318.428 117.086C323.912 104.839 312.966 91.6397 299.904 94.7504L218.072 114.233L155.678 57.9508C145.719 48.9672 129.76 55.3012 128.672 68.6691Z" fill="#FFDF34"/>
<path d="M50.7718 223.318L128.391 255.596L145.719 337.799C148.483 350.92 165.114 355.163 173.858 344.978L228.646 281.177L312.275 290.041C325.623 291.456 334.816 276.965 327.831 265.519L296.482 214.147C281.643 228.719 264.678 241.211 245.362 249.369C216.357 261.616 181.429 262.777 155.862 247.254C141.082 238.282 130.339 224.51 121.967 209.887C113.586 195.249 107.327 179.469 103.307 163.091L48.9391 194.36C37.3001 201.054 38.3848 218.168 50.7745 223.321L50.7718 223.318Z" fill="#FFD02B"/>
<path d="M169.725 109.865C173.149 114.747 186.036 127.87 190.433 131.901C206.408 146.55 221.355 142.513 237.214 139.595C240.737 138.946 244.345 137.959 247.057 135.62C249.768 133.279 251.316 129.259 249.835 126.004C247.994 121.961 242.737 120.175 238.356 120.942C234.324 121.648 227.711 123.041 220.733 124.335C214.461 125.497 208.038 123.358 203.721 118.675C197.537 111.964 188.773 102.607 184.857 99.1469C180.716 95.4874 174.684 90.2201 168.451 94.8633C163.62 98.4631 165.878 104.382 169.726 109.868L169.725 109.865Z" fill="#FFF9C5"/>
<path d="M273.204 130.294C268.694 132.084 263.589 129.884 261.802 125.38C260.014 120.876 262.221 115.774 266.731 113.984C271.241 112.194 276.347 114.394 278.134 118.898C279.922 123.402 277.714 128.504 273.204 130.294Z" fill="#FFF9C5"/>
</g>
<defs>
<clipPath id="clip0_136_17995">
<rect width="297.787" height="284.403" fill="white" transform="matrix(-0.929469 0.3689 0.3689 0.929469 277.24 0.000244141)"/>
</clipPath>
</defs>
</svg>
