<svg width="3772" height="875" viewBox="0 0 3772 875" fill="none" xmlns="http://www.w3.org/2000/svg">
<path d="M1607.5 49.7822C1437.97 49.7822 1391.24 169.512 1126.2 169.512C897.654 169.512 860.148 0 680.116 0C500.084 0 460.577 149.933 312.05 149.933C193.229 149.933 93.1778 61.6562 30.5 17.5179L0 874.282H3480.5C3645.03 736.372 3955.4 161.268 3626.14 161.268C3214.57 161.268 3166.56 17.5179 2870.51 17.5179C2574.45 17.5179 2484.94 204.032 2360.92 204.032C2236.89 204.032 2165.38 101.501 2087.37 101.501C2009.35 101.501 1989.01 114.782 1906 114.782C1822.99 114.782 1777.03 49.7822 1607.5 49.7822Z" fill="#74B65F"/>
</svg>
