<svg width="361" height="192" viewBox="0 0 361 192" fill="none" xmlns="http://www.w3.org/2000/svg">
<path d="M50.6522 15.7662L57.7527 38.0541L80.146 44.8507C83.7203 45.9358 84.5003 50.6457 81.4654 52.8205L62.4535 66.4486L62.9146 89.8322C62.9881 93.5645 58.7476 95.759 55.7388 93.546L36.888 79.6804L14.7793 87.3353C11.2505 88.5571 7.84988 85.2039 9.02484 81.6609L16.3865 59.4635L2.26252 40.811C0.00801619 37.8337 2.14665 33.5664 5.88164 33.5901L29.2817 33.737L42.6609 14.5545C44.7964 11.4926 49.5189 12.2087 50.6522 15.7662Z" fill="#FFDF34"/>
<path d="M81.4661 52.8207L62.4548 66.4484L62.9154 89.8319C62.9893 93.5643 58.7483 95.7592 55.7396 93.5458L36.8888 79.6806L14.7801 87.3351C11.2513 88.5568 7.85068 85.2037 9.02564 81.6607L14.2993 65.7588C19.2351 68.7797 24.6163 71.1029 30.3631 72.1027C38.9922 73.6036 48.5312 71.7256 54.4863 65.9103C57.9292 62.5489 59.9768 58.1393 61.3284 53.6475C62.6815 49.1509 63.3881 44.4781 63.4502 39.7834L80.1462 44.8513C83.7206 45.9364 84.5001 50.6462 81.4656 52.8215L81.4661 52.8207Z" fill="#FFD02B"/>
<path d="M42.1107 29.5169C41.4889 31.056 38.8195 35.4243 37.8807 36.7937C34.4702 41.7697 30.1661 41.6131 25.6849 41.8173C24.6895 41.8625 23.6496 41.8213 22.768 41.3571C21.8864 40.8925 21.2148 39.8992 21.4119 38.9234C21.6572 37.7112 22.9698 36.8967 24.2054 36.8299C25.3423 36.7682 27.222 36.731 29.1944 36.6437C30.967 36.5651 32.5737 35.5817 33.4497 34.0405C34.7048 31.8321 36.4929 28.7441 37.3373 27.5597C38.23 26.3071 39.5342 24.4998 41.5148 25.3679C43.05 26.0409 42.8093 27.7882 42.1106 29.5177L42.1107 29.5169Z" fill="#FFF9C5"/>
<path d="M15.3475 41.5541C16.6821 41.7564 17.9277 40.8392 18.1296 39.5055C18.3315 38.1717 17.4133 36.9264 16.0787 36.7241C14.7441 36.5217 13.4985 37.4389 13.2966 38.7727C13.0947 40.1064 14.0129 41.3517 15.3475 41.5541Z" fill="#FFF9C5"/>
<path d="M49.9984 141.262C53.53 148.524 58.5406 155.089 64.7698 160.435C70.7913 165.6 77.9773 169.639 86.0556 172.132C109.725 179.429 134.479 171.358 149.59 153.61C154.036 148.394 157.626 142.363 160.13 135.619C160.489 134.672 160.806 133.717 161.132 132.72C161.445 131.746 161.734 130.759 161.962 129.768C162.955 126.318 163.739 122.905 164.411 119.443C166.155 110.475 166.793 101.529 166.472 92.7054C166.198 85.2321 165.215 77.8522 163.548 70.6578C162.058 64.0475 160.014 57.5875 157.421 51.3749C156.038 48.0946 154.535 44.8861 152.876 41.7596C151.235 38.6281 149.07 35.7574 146.525 33.2463C142.664 29.3926 137.825 26.3969 132.237 24.671C131.671 24.4884 131.079 24.3526 130.505 24.2118C130.229 24.1481 129.954 24.0844 129.697 24.0157C121.285 22.0476 112.703 23.3459 105.472 27.143C103.337 28.2749 101.226 29.4989 99.1574 30.7313C91.9782 35.0874 85.2535 40.1698 79.0843 45.9118C73.5923 51.0751 68.5605 56.7657 64.0628 62.9636C59.5516 69.1848 55.5931 75.9084 52.2882 83.0672C50.5891 86.7679 49.0594 90.5809 47.7039 94.5244C47.3495 95.4897 47.0137 96.4501 46.7013 97.4239C46.3939 98.416 46.105 99.4032 45.8765 100.394C45.2709 102.632 44.8652 104.876 44.557 107.113C44.2231 109.476 44.0422 111.817 44.0007 114.16C43.8275 123.651 45.9547 132.914 50.002 141.202L49.9984 141.262Z" fill="#EDEDED"/>
<path opacity="0.05" d="M49.9984 141.262C53.53 148.524 58.5406 155.089 64.7698 160.435C70.7913 165.6 77.9773 169.639 86.0556 172.132C109.725 179.429 134.479 171.358 149.59 153.61C154.036 148.394 157.626 142.363 160.13 135.619C160.489 134.672 160.806 133.717 161.132 132.72C161.445 131.746 161.734 130.759 161.962 129.768C162.955 126.318 163.739 122.905 164.411 119.443C166.155 110.475 166.793 101.529 166.472 92.7054C166.198 85.2321 165.215 77.8522 163.548 70.6578C162.058 64.0475 160.014 57.5875 157.421 51.3749C156.038 48.0946 154.535 44.8861 152.876 41.7596C151.235 38.6281 149.07 35.7574 146.525 33.2463C142.664 29.3926 137.825 26.3969 132.237 24.671C131.671 24.4884 131.079 24.3526 130.505 24.2118C130.229 24.1481 129.954 24.0844 129.697 24.0157C121.285 22.0476 112.703 23.3459 105.472 27.143C103.337 28.2749 101.226 29.4989 99.1574 30.7313C91.9782 35.0874 85.2535 40.1698 79.0843 45.9118C73.5923 51.0751 68.5605 56.7657 64.0628 62.9636C59.5516 69.1848 55.5931 75.9084 52.2882 83.0672C50.5891 86.7679 49.0594 90.5809 47.7039 94.5244C47.3495 95.4897 47.0137 96.4501 46.7013 97.4239C46.3939 98.416 46.105 99.4032 45.8765 100.394C45.2709 102.632 44.8652 104.876 44.557 107.113C44.2231 109.476 44.0422 111.817 44.0007 114.16C43.8275 123.651 45.9547 132.914 50.002 141.202L49.9984 141.262Z" fill="black"/>
<path d="M49.9987 141.26C53.5304 148.522 60.2435 158.301 68.8188 161.825C91.6947 171.254 117.261 161.046 132.354 143.303C136.781 138.092 140.389 132.056 142.875 125.317C143.252 124.365 143.57 123.41 143.872 122.399C144.185 121.425 144.473 120.438 144.702 119.448C145.676 116.003 146.474 112.566 147.151 109.123C148.876 100.159 149.533 91.2087 149.212 82.385C148.956 74.9067 147.955 67.5318 146.306 60.3324C144.817 53.722 142.735 47.272 140.161 41.0544C138.778 37.7741 136.722 34.0634 134.572 31.2479C126.434 20.5317 112.704 23.3438 105.473 27.1409C103.337 28.2729 101.226 29.4969 99.1578 30.7293C91.9786 35.0853 85.2539 40.1678 79.0846 45.9098C73.5926 51.0731 68.5608 56.7637 64.0631 62.9616C59.552 69.1829 55.5934 75.9064 52.2885 83.0653C50.5895 86.766 49.0597 90.5789 47.7042 94.5224C47.3498 95.4878 47.014 96.4482 46.7016 97.4219C46.3942 98.4141 46.1053 99.4012 45.8768 100.392C45.2713 102.63 44.8656 104.874 44.5573 107.111C44.2234 109.474 44.0425 111.815 44.001 114.158C43.8278 123.649 45.9551 132.912 50.0023 141.2L49.9987 141.26Z" fill="#F5F5F5"/>
<path d="M57.4908 99.0622C63.751 80.8088 83.6513 71.0097 101.957 77.1921C106.852 78.8491 110.587 84.2974 113.368 91.6445C120.094 109.401 111.568 130.798 98.7793 138.709C92.0611 142.861 84.2093 144.95 79.3149 143.293C61.0091 137.11 51.2306 117.316 57.4908 99.0622Z" fill="#FFE600"/>
<path opacity="0.1" d="M57.607 121.951C65.6987 134.774 83.829 134.582 98.9155 122.986C111.752 113.126 114.615 95.8921 110.286 85.0925C111.427 87.0357 112.456 89.2265 113.368 91.6464C120.094 109.403 111.568 130.799 98.78 138.71C92.0621 142.862 84.2105 144.95 79.3163 143.293C68.766 139.731 61.0848 131.658 57.6304 121.965L57.607 121.951Z" fill="black"/>
<path opacity="0.2" d="M90.0748 79.1444C94.7135 79.7838 95.4259 82.7119 95.0751 84.1305C94.3123 87.1818 90.9957 87.4682 83.0865 87.8731C75.1774 88.2779 67.7739 95.6178 66.5216 93.4089C65.989 92.4667 65.9144 91.677 66.8947 89.8705C67.9241 87.952 70.041 85.798 72.6671 84.0591C78.5574 80.1517 85.0919 78.4798 90.0983 79.1578L90.0748 79.1444Z" fill="white"/>
<path opacity="0.1" d="M86.0634 172.134C77.9858 169.641 70.8003 165.603 64.7792 160.438C63.7977 159.598 62.8618 158.706 61.9444 157.808C68.3629 163.636 87.6669 175.789 117.706 166.128C151.361 155.308 163.742 122.695 166.529 95.7826C166.623 103.62 165.925 111.534 164.395 119.456C163.723 122.917 162.938 126.33 161.946 129.78C161.699 130.775 161.41 131.762 161.116 132.731C160.809 133.723 160.478 134.702 160.114 135.63C157.629 142.369 154.02 148.404 149.575 153.619C134.465 171.365 109.712 179.436 86.045 172.139L86.0634 172.134Z" fill="black"/>
<path d="M283.321 124.191C282.606 125.505 282.134 126.977 281.146 128.101C279.019 130.482 274.798 131.035 273.98 134.109C273.468 136.062 274.693 138.038 276.046 139.547C279.873 143.808 285.022 146.583 290.108 149.228C296.745 152.659 303.544 155.996 310.825 157.688C315.754 158.828 320.817 159.179 325.874 159.51C329.357 159.725 333.097 159.878 336.09 158.074C337.524 157.213 338.662 155.956 339.698 154.646C340.715 153.343 341.663 151.89 341.868 150.248C342.22 147.387 340.284 144.784 338.335 142.675C332.177 136.044 324.694 130.687 316.587 126.657C311.212 123.976 305.474 121.9 299.506 120.984C294.636 120.231 286.164 119.024 283.313 124.236L283.321 124.191Z" fill="#AF6152"/>
<path d="M273.179 150.284C283.528 160.506 299.759 163.636 313.814 164.411C320.375 164.775 327.087 164.069 333.102 161.432C333.795 161.127 334.495 160.776 334.89 160.139C335.609 158.973 334.937 157.46 334.156 156.344C333.017 154.703 326.917 147.244 324.534 149.152C324.293 149.335 324.083 149.615 323.793 149.644C323.581 149.647 323.377 149.542 323.225 149.398C322.38 148.686 321.9 147.645 321.304 146.705C320.707 145.766 319.826 144.873 318.721 144.82C318.419 144.809 318.077 144.875 317.893 145.104C317.742 145.301 317.693 145.551 317.683 145.789C317.587 146.63 317.485 147.451 317.369 148.297C315.814 147.769 315.114 146.031 314.37 144.562C313.627 143.093 312.267 141.565 310.667 141.903C309.925 142.054 309.248 142.61 308.511 142.439C307.082 142.105 307.293 139.609 305.912 139.089C305.598 138.975 305.257 138.977 304.923 138.998C303.262 139.079 301.307 139.508 300.73 141.056C300.502 141.682 300.556 142.39 300.353 143.03C300.151 143.67 299.537 144.291 298.903 144.109C298.455 143.975 298.223 143.515 298.043 143.082C297.267 141.24 296.795 139.28 296.638 137.306C296.618 136.971 296.559 136.585 296.259 136.446C296.08 136.353 295.855 136.383 295.655 136.425C294.713 136.618 293.771 136.811 292.81 137.01C292.144 136.39 293.646 135.273 293.15 134.515C293.03 134.34 292.826 134.234 292.615 134.173C290.881 133.552 288.972 133.861 287.234 134.435C285.495 135.009 283.842 135.854 282.073 136.332C281.807 134.754 283.433 133.555 284.853 132.783C278.205 130.528 270.797 132.542 269.069 140.082C268.209 143.83 269.036 145.698 271.565 148.56C272.097 149.158 272.641 149.731 273.199 150.278L273.179 150.284Z" fill="#C8856A"/>
<path d="M315.742 141.696C315.988 142.001 316.255 142.236 316.633 142.351C317.542 142.594 318.427 141.951 319.344 142.085C320.487 142.255 321.565 143.233 322.489 143.856C324.794 145.404 327.013 147.085 329.121 148.887C331.312 150.748 333.621 152.849 336.493 153.087C336.731 153.096 336.988 153.1 337.177 152.955C337.411 152.752 337.429 152.405 337.376 152.103C337.107 149.908 335.616 148.101 334.103 146.493C330.995 143.219 327.54 140.268 323.783 137.775C320.51 135.598 317.544 133.514 313.943 131.782C310.163 129.957 306.27 128.382 302.229 127.216C295.972 125.39 288.585 123.902 282.324 126.234C280.836 126.792 279.435 128.026 280.564 129.5C282.033 131.441 285.799 129.114 287.01 131.116C287.136 131.311 287.196 131.569 287.355 131.732C287.703 132.09 288.276 132.014 288.78 131.918C291.127 131.513 293.568 131.738 295.813 132.559C296.996 132.993 298.207 133.716 298.582 134.897C298.821 135.652 298.755 136.654 299.437 137.055C299.883 137.318 300.464 137.197 300.898 136.952C301.333 136.708 301.731 136.347 302.165 136.102C303.346 135.45 304.834 135.701 305.994 136.398C307.148 137.075 308.02 138.141 308.86 139.174C310.939 138.193 313.7 138.892 315.036 140.748C315.263 141.06 315.457 141.403 315.703 141.708L315.742 141.696Z" fill="#C8856A"/>
<path d="M326.462 137.413C330.006 139.974 333.411 142.77 336.712 145.642C338.153 146.889 341.704 150.683 342.863 147.203C343.126 146.416 343.074 145.58 342.926 144.775C342.521 142.623 341.502 140.624 340.34 138.777C332.68 126.399 318.896 118.335 304.434 116.475C299.632 115.871 295.116 115.495 290.384 117.063C287.527 118.014 284.553 119.472 283.264 122.205C283.19 122.377 283.117 122.55 283.133 122.736C283.154 123.071 283.491 123.326 283.812 123.394C284.132 123.463 284.487 123.371 284.81 123.311C286.429 122.967 288.177 122.689 289.811 122.659C289.959 122.655 290.126 122.644 290.25 122.562C290.406 122.449 290.447 122.244 290.521 122.071C290.768 121.438 291.525 121.134 292.2 121.175C292.875 121.216 293.494 121.552 294.08 121.92C294.927 122.439 295.755 123.029 296.549 123.65C296.95 123.97 297.356 124.31 297.817 124.483C298.277 124.656 298.888 124.632 299.267 124.278C299.43 124.119 299.536 123.915 299.693 123.737C300.485 122.803 302.036 123.184 303.002 123.943C303.949 124.707 304.692 125.771 305.843 126.236C307.288 126.821 308.911 126.22 310.463 126.067C311.417 125.977 312.386 126.074 313.322 126.331C313.533 126.392 313.776 126.485 313.902 126.679C314.09 127.003 313.858 127.418 313.782 127.783C313.59 128.59 314.169 129.408 314.89 129.796C315.611 130.185 316.465 130.255 317.287 130.356C318.732 130.536 320.155 130.851 321.525 131.268C322.261 131.502 323.141 131.99 323.04 132.747C323.01 132.991 322.885 133.201 322.804 133.418C322.602 134.058 322.893 134.775 323.349 135.27C324.185 136.155 325.521 136.668 326.494 137.382L326.462 137.413Z" fill="#C8856A"/>
<path opacity="0.4" d="M334.15 156.325C333.798 155.819 333.393 155.351 332.989 154.883C333.222 156.024 333.345 157.285 332.573 158.148C331.428 159.45 329.226 158.765 327.911 157.648C326.597 156.532 325.43 155.006 323.724 154.675C324.206 155.523 324.727 156.423 324.757 157.394C324.787 158.364 324.147 159.442 323.181 159.557C322.768 159.603 322.34 159.462 321.95 159.309C320.109 158.552 318.528 157.2 317.512 155.477C316.397 155.597 317.042 157.63 316.144 158.299C315.435 158.823 314.495 158.078 313.985 157.345C312.94 155.866 312.064 154.247 311.42 152.555C310.052 152.884 310.032 155.447 308.637 155.422C307.756 155.404 307.354 154.338 307.265 153.45C307.083 151.867 307.146 150.248 307.414 148.671C307.491 148.242 307.576 147.767 307.427 147.367C307.181 146.657 306.292 146.343 305.568 146.552C304.838 146.741 304.302 147.338 303.9 147.956C302.727 149.842 302.756 152.22 303.115 154.429C303.162 154.712 303.209 154.995 303.102 155.264C302.761 156.139 301.41 155.716 300.771 155.046C300.131 154.375 299.257 153.503 298.427 153.916C298.187 154.034 298.004 154.263 297.739 154.369C296.949 154.705 296.256 153.732 295.998 152.919C295.74 152.106 295.306 151.072 294.463 151.105C293.851 151.129 293.444 151.728 292.956 152.075C292.118 152.661 290.917 152.51 290.071 151.926C289.224 151.343 288.691 150.404 288.326 149.455C287.349 146.845 287.582 143.809 288.937 141.354C289.123 140.996 289.348 140.562 289.115 140.231C288.85 139.868 288.276 140.008 287.88 140.24C286.194 141.182 284.896 142.809 284.353 144.665C284.129 145.44 284.033 146.28 283.668 147.014C283.303 147.748 282.612 148.394 281.789 148.358C280.921 148.314 280.277 147.56 279.825 146.808C278.934 145.344 278.309 143.71 278.007 142.016C277.236 141.536 276.225 141.985 275.535 142.567C274.851 143.168 274.241 143.938 273.382 144.189C272.367 144.491 271.237 143.955 270.587 143.117C269.937 142.28 269.683 141.209 269.584 140.154C269.534 139.595 269.53 139.042 269.564 138.477C269.363 138.988 269.188 139.513 269.064 140.064C268.203 143.811 269.031 145.679 271.56 148.541C272.091 149.139 272.636 149.712 273.194 150.259C283.542 160.481 299.773 163.611 313.827 164.385C320.388 164.75 327.101 164.044 333.115 161.407C333.808 161.101 334.508 160.751 334.904 160.114C335.622 158.948 334.95 157.435 334.17 156.319L334.15 156.325Z" fill="#AF6152"/>
<path opacity="0.4" d="M342.857 147.185C343.12 146.398 343.068 145.562 342.919 144.757C342.514 142.605 341.496 140.606 340.334 138.758C332.674 126.381 318.889 118.316 304.426 116.456C299.624 115.852 295.108 115.476 290.376 117.044C290.202 117.1 290.027 117.155 289.853 117.211C289.819 117.307 289.76 117.39 289.746 117.479C289.676 118.269 290.66 118.681 291.444 118.73C294.284 118.935 297.16 117.637 299.949 118.221C300.269 118.29 300.665 118.462 300.686 118.797C300.702 119.047 300.486 119.244 300.393 119.487C300.191 120.062 300.877 120.611 301.469 120.594C302.081 120.57 302.613 120.23 303.195 120.045C303.777 119.86 304.523 119.857 304.856 120.369C305.032 120.655 305.059 121.008 305.234 121.293C305.65 121.865 306.509 121.677 307.174 121.487C310.663 120.441 314.52 120.622 317.888 122.023C316.885 122.427 315.724 123.074 315.746 124.154C315.772 125.446 317.443 125.937 318.729 125.955C320.35 125.951 321.993 125.748 323.625 125.912C325.25 126.056 326.92 126.612 327.976 127.853C327.506 128.258 327.057 128.657 326.593 129.081C326.463 129.208 326.313 129.341 326.284 129.52C326.213 129.969 326.828 130.158 327.278 130.164C328.178 130.176 329.098 130.182 329.998 130.194C329.112 130.966 329.88 132.512 330.98 132.951C332.073 133.371 333.298 133.195 334.444 133.512C335.565 133.816 336.646 135.071 336.052 136.091C335.9 136.353 335.646 136.562 335.52 136.836C335.042 137.819 336.25 138.735 337.213 139.282C338.61 140.052 339.888 141.053 340.983 142.218C342.104 143.396 343.067 145.222 342.158 146.597C341.572 147.508 340.417 147.769 339.296 147.87C340.684 148.814 342.157 149.219 342.824 147.217L342.857 147.185Z" fill="#AF6152"/>
<path opacity="0.05" d="M339.706 154.603C340.722 153.299 341.67 151.847 341.875 150.205C341.948 149.628 341.905 149.087 341.816 148.54C341.836 148.534 341.875 148.521 341.894 148.515C341.991 148.484 342.056 148.421 342.141 148.351C342.199 148.333 342.225 148.282 342.277 148.244C342.362 148.175 342.434 148.066 342.507 147.958C342.533 147.907 342.585 147.869 342.612 147.818C342.705 147.639 342.797 147.461 342.891 147.218C343.154 146.431 343.102 145.595 342.953 144.79C342.548 142.638 341.53 140.639 340.368 138.792C339.621 137.58 338.809 136.431 337.938 135.302C338.045 136.781 337.841 138.359 336.834 139.425C334.978 141.379 331.456 140.837 329.053 140.663C329.911 141.754 330.704 142.908 331.387 144.119C331.781 144.825 332.173 145.723 331.757 146.431C331.539 146.82 331.124 147.059 330.704 147.214C329.714 147.592 328.581 147.654 327.556 147.383C328.4 148.969 329.266 150.825 328.604 152.506C328.13 153.701 326.993 154.489 325.884 155.097C321.713 157.425 317.207 158.154 312.529 158.682C307.936 159.205 302.198 158.876 297.671 157.928C289.625 156.245 283.982 153.862 278.625 149.555C273.383 145.339 270.909 140.904 272.474 134.397C270.891 135.731 269.673 137.61 269.101 140.115C268.617 141.953 268.615 143.36 269.026 144.657C269.438 145.954 270.282 147.135 271.547 148.566C272.078 149.164 272.622 149.737 273.18 150.285C273.833 150.929 274.493 151.53 275.191 152.117C281.402 157.368 289.33 160.495 297.522 162.302C298.439 162.501 299.349 162.68 300.26 162.86C301.619 163.11 302.967 163.321 304.328 163.506C305.31 163.641 306.285 163.757 307.261 163.873C309.476 164.128 311.686 164.3 313.839 164.425C314.661 164.462 315.484 164.499 316.3 164.516C317.953 164.545 319.6 164.49 321.242 164.352C322.884 164.213 324.521 163.991 326.121 163.653C326.921 163.484 327.715 163.295 328.503 163.088C329.291 162.88 330.066 162.633 330.849 162.342C331.618 162.076 332.375 161.771 333.146 161.441C333.262 161.404 333.366 161.329 333.482 161.292C333.599 161.255 333.683 161.185 333.793 161.129C334.247 160.878 334.664 160.575 334.934 160.148C335.013 159.995 335.093 159.842 335.133 159.701C335.187 159.535 335.202 159.381 335.218 159.227C335.234 159.008 335.205 158.783 335.17 158.538C335.487 158.395 335.818 158.226 336.123 158.044C337.557 157.183 338.695 155.926 339.731 154.616L339.706 154.603Z" fill="black"/>
<path d="M342.01 63.2407C343.07 63.7562 344.03 64.4953 345.158 64.7547C347.58 65.3272 350.518 63.7539 352.436 65.3606C353.655 66.3795 353.757 68.1801 353.572 69.752C353.042 74.2045 351.012 78.3026 348.945 82.2845C346.243 87.4917 343.405 92.6778 339.519 97.0464C336.889 99.9926 333.808 102.528 330.729 104.999C328.606 106.718 326.27 108.505 323.553 108.687C322.259 108.779 320.952 108.491 319.703 108.121C318.454 107.751 317.208 107.252 316.328 106.295C314.816 104.623 314.887 102.086 315.184 99.8604C316.139 92.8432 318.486 86.044 321.867 79.8114C324.097 75.671 326.825 71.7558 330.225 68.4795C333.005 65.8052 337.86 61.1926 342.029 63.2345L342.01 63.2407Z" fill="#AF6152"/>
<path d="M360.228 75.3323C358.226 86.5186 349.261 95.8694 340.655 102.719C336.632 105.916 332.014 108.514 326.981 109.539C326.401 109.659 325.788 109.747 325.245 109.515C324.255 109.084 324.004 107.821 324.007 106.755C324.005 105.2 324.537 97.6563 326.914 97.8169C327.152 97.8265 327.414 97.9136 327.609 97.7877C327.752 97.6997 327.825 97.5272 327.86 97.367C328.085 96.5282 327.911 95.6455 327.873 94.784C327.834 93.9224 327.997 92.9542 328.68 92.4173C328.869 92.272 329.115 92.1725 329.346 92.227C329.531 92.2745 329.664 92.4241 329.797 92.5737C330.227 93.055 330.683 93.5495 331.113 94.0309C331.868 92.9808 331.543 91.5498 331.356 90.2878C331.169 89.0258 331.341 87.4153 332.526 86.9107C333.07 86.6739 333.744 86.7151 334.137 86.2706C334.909 85.4071 333.645 83.9121 334.283 82.9632C334.428 82.7467 334.662 82.6085 334.87 82.4571C335.954 81.7713 337.398 81.1418 338.461 81.8694C338.894 82.158 339.176 82.6437 339.577 82.964C339.977 83.2843 340.676 83.4029 340.991 82.9831C341.221 82.697 341.156 82.2913 341.084 81.9305C340.754 80.4159 340.178 78.9366 339.368 77.5955C339.236 77.3817 339.106 77.1036 339.225 76.8739C339.304 76.7207 339.453 76.6521 339.608 76.6028C340.301 76.2972 340.994 75.9917 341.687 75.6862C341.832 75.0006 340.366 74.9551 340.352 74.2352C340.341 74.068 340.44 73.9087 340.526 73.7749C341.347 72.5972 342.715 71.928 344.078 71.5159C345.435 71.0844 346.891 70.8984 348.224 70.3895C347.694 69.2578 346.106 69.2299 344.85 69.3736C348.069 64.9189 353.714 62.8681 358.22 66.913C360.46 68.9288 360.784 70.4883 360.449 73.4718C360.388 74.0879 360.283 74.6969 360.177 75.306L360.228 75.3323Z" fill="#C8856A"/>
<path d="M329.181 89.0797C329.17 89.3816 329.089 89.6632 328.905 89.8921C328.427 90.4704 327.565 90.446 327.043 90.953C326.384 91.5674 326.142 92.6887 325.847 93.5073C325.083 95.5405 324.415 97.6071 323.888 99.7142C323.341 101.892 322.797 104.281 321.057 105.729C320.901 105.843 320.745 105.957 320.552 105.954C320.315 105.944 320.157 105.717 320.045 105.497C319.225 103.989 319.362 102.134 319.613 100.434C320.129 96.9452 320.998 93.4933 322.276 90.1882C323.393 87.318 324.341 84.6511 325.861 81.9084C327.448 79.038 329.239 76.2733 331.285 73.7047C334.458 69.712 338.498 65.4224 343.56 64.0899C344.761 63.7719 346.2 63.9327 346.152 65.3972C346.091 67.2921 342.621 67.5216 342.754 69.3548C342.77 69.5414 342.826 69.7156 342.803 69.9145C342.753 70.293 342.331 70.5122 341.981 70.6874C340.291 71.4807 338.831 72.7334 337.779 74.2615C337.226 75.0766 336.774 76.0729 337.069 77.0023C337.259 77.6025 337.745 78.1938 337.479 78.7686C337.319 79.1391 336.886 79.3196 336.493 79.3593C336.1 79.399 335.696 79.3357 335.283 79.3815C334.233 79.5023 333.391 80.3456 332.965 81.2909C332.545 82.2556 332.458 83.3276 332.378 84.3547C330.598 84.6648 329.171 86.3549 329.144 88.1539C329.133 88.4557 329.167 88.7646 329.136 89.0727L329.181 89.0797Z" fill="#C8856A"/>
<path d="M320.414 91.1831C319.311 94.4327 318.393 97.7297 317.571 101.06C317.214 102.495 316.658 106.529 314.349 104.834C313.827 104.467 313.495 103.891 313.227 103.315C312.518 101.75 312.267 100.018 312.177 98.3206C311.493 86.9435 316.682 75.575 325.076 67.8549C327.829 65.2959 330.558 63 334.28 61.8807C336.541 61.2043 339.101 60.7954 341.154 61.9542C341.282 62.0201 341.416 62.1055 341.478 62.2349C341.616 62.4681 341.521 62.7752 341.345 62.9592C341.168 63.1432 340.903 63.2488 340.663 63.3677C339.479 63.8722 338.247 64.4982 337.169 65.2034C337.065 65.2791 336.974 65.3293 336.846 65.3276C336.698 65.332 336.577 65.2211 336.463 65.1296C336.01 64.8472 335.391 64.9802 334.987 65.3218C334.583 65.6633 334.331 66.1483 334.124 66.6403C333.818 67.3559 333.543 68.1041 333.332 68.8531C333.217 69.2307 333.114 69.647 332.897 69.9718C332.661 70.3028 332.271 70.5545 331.886 70.4851C331.706 70.457 331.553 70.3778 331.367 70.3303C330.438 70.0928 329.627 71.033 329.362 71.9483C329.097 72.8637 329.101 73.8855 328.587 74.6882C327.929 75.7075 326.611 76.0625 325.567 76.6717C324.918 77.0485 324.331 77.5547 323.872 78.1269C323.767 78.2668 323.649 78.4323 323.659 78.5995C323.687 78.8891 324.019 79.0606 324.248 79.2437C324.724 79.6678 324.738 80.4519 324.452 81.0329C324.167 81.6138 323.659 82.0311 323.183 82.4809C322.335 83.2406 321.576 84.0786 320.881 84.9817C320.52 85.4588 320.169 86.1674 320.586 86.61C320.713 86.7402 320.892 86.8326 321.032 86.9373C321.451 87.2514 321.597 87.8446 321.505 88.3639C321.376 89.3003 320.757 90.2431 320.441 91.132L320.414 91.1831Z" fill="#C8856A"/>
<path opacity="0.4" d="M324.021 106.729C324.015 106.241 324.074 105.753 324.114 105.272C324.487 106.112 324.969 106.96 325.847 107.171C327.161 107.478 328.269 106.06 328.598 104.741C328.946 103.416 328.988 101.932 329.935 100.949C330.007 101.714 330.091 102.519 330.506 103.154C330.921 103.789 331.816 104.187 332.49 103.823C332.782 103.667 332.992 103.387 333.163 103.119C334.006 101.807 334.397 100.212 334.272 98.6746C335.037 98.2608 335.534 99.829 336.415 99.8473C337.103 99.863 337.368 98.9477 337.365 98.2666C337.361 96.84 337.19 95.424 336.837 94.0441C337.86 93.6338 339.038 95.2626 339.922 94.6191C340.475 94.2089 340.244 93.3447 339.905 92.749C339.304 91.6613 338.535 90.6485 337.661 89.7757C337.413 89.5346 337.141 89.2803 337.056 88.945C336.897 88.3774 337.324 87.7727 337.88 87.5746C338.436 87.3765 339.052 87.5004 339.57 87.7195C341.174 88.403 342.231 89.9209 342.986 91.4925C343.092 91.6931 343.179 91.8999 343.37 92.031C343.988 92.4313 344.651 91.56 344.758 90.8224C344.872 90.1043 345.021 89.1617 345.75 89.0366C345.956 89.0137 346.187 89.0682 346.387 89.0259C347.045 88.8806 347.046 87.9424 346.844 87.3036C346.641 86.6647 346.455 85.8075 347.006 85.4615C347.416 85.2036 347.927 85.4033 348.416 85.397C349.22 85.3758 349.918 84.749 350.193 84.0009C350.468 83.2528 350.391 82.4036 350.19 81.6362C349.63 79.5338 348.108 77.6948 346.141 76.7429C345.86 76.5978 345.528 76.4262 345.533 76.105C345.545 75.7389 345.966 75.5839 346.339 75.5504C347.847 75.3908 349.402 75.8552 350.572 76.7834C351.061 77.182 351.51 77.6572 352.059 77.973C352.607 78.2888 353.358 78.3697 353.853 77.9779C354.381 77.5545 354.456 76.7844 354.409 76.0962C354.326 74.7586 353.967 73.4236 353.413 72.2145C353.673 71.5561 354.538 71.3879 355.244 71.4617C355.951 71.5355 356.681 71.7509 357.353 71.5158C358.148 71.2631 358.618 70.3891 358.656 69.5671C358.694 68.7451 358.372 67.9311 357.958 67.2316C357.732 66.8558 357.487 66.4862 357.228 66.1422C357.585 66.3912 357.941 66.6402 358.265 66.9208C360.505 68.9366 360.829 70.4961 360.494 73.4795C360.433 74.0956 360.328 74.7046 360.222 75.3136C358.22 86.4996 349.255 95.8503 340.649 102.7C336.626 105.897 332.008 108.495 326.976 109.519C326.395 109.64 325.783 109.728 325.24 109.496C324.249 109.065 323.998 107.802 324.001 106.735L324.021 106.729Z" fill="#AF6152"/>
<path opacity="0.4" d="M314.331 104.84C313.828 104.467 313.477 103.896 313.209 103.321C312.499 101.756 312.249 100.024 312.159 98.3263C311.475 86.9489 316.663 75.5801 325.058 67.8596C327.83 65.2944 330.56 62.9984 334.281 61.8791C334.417 61.8359 334.553 61.7928 334.708 61.7435C334.765 61.7892 334.836 61.8094 334.899 61.8746C335.284 62.3489 334.849 63.0628 334.374 63.4483C332.648 64.871 330.235 65.3397 328.705 66.977C328.529 67.161 328.364 67.448 328.502 67.6812C328.615 67.8369 328.84 67.8721 328.986 67.9962C329.374 68.2777 329.197 68.9308 328.788 69.1888C328.404 69.46 327.896 69.4724 327.43 69.6203C326.965 69.7683 326.497 70.109 326.515 70.5719C326.531 70.8228 326.675 71.0753 326.691 71.3262C326.695 71.8789 326.054 72.1466 325.531 72.313C322.829 73.2148 320.453 75.0785 318.937 77.5001C319.75 77.3054 320.807 77.204 321.259 77.8913C321.826 78.7344 320.993 79.8092 320.154 80.3955C319.107 81.1332 317.979 81.7478 317.002 82.57C316.024 83.3923 315.223 84.4996 315.094 85.7767C315.582 85.8347 316.045 85.8795 316.533 85.9375C316.667 85.9586 316.841 85.9674 316.942 86.0844C317.196 86.3449 316.868 86.7261 316.595 86.9409C316.022 87.3573 315.45 87.7737 314.878 88.1901C315.783 88.2859 315.995 89.6254 315.488 90.3833C314.987 91.1606 314.119 91.5858 313.536 92.3041C312.953 93.0225 312.824 94.2996 313.667 94.6708C313.891 94.7702 314.129 94.7799 314.339 94.9048C315.092 95.3262 314.721 96.4458 314.349 97.2248C313.811 98.355 313.446 99.5583 313.26 100.79C313.086 102.06 313.288 103.637 314.464 104.115C315.25 104.441 316.098 104.086 316.851 103.634C316.389 104.868 315.635 105.789 314.299 104.807L314.331 104.84Z" fill="#AF6152"/>
<path opacity="0.05" d="M319.692 108.147C318.443 107.777 317.197 107.278 316.317 106.321C316.02 105.989 315.794 105.614 315.607 105.226C315.587 105.232 315.568 105.238 315.549 105.244C315.471 105.269 315.401 105.249 315.317 105.254C315.278 105.266 315.233 105.259 315.188 105.252C315.098 105.238 315.003 105.205 314.926 105.165C314.881 105.158 314.836 105.151 314.785 105.125C314.638 105.065 314.504 104.979 314.339 104.862C313.817 104.495 313.485 103.918 313.217 103.343C312.507 101.778 312.257 100.046 312.167 98.3485C312.093 97.2423 312.104 96.1307 312.139 95.0324C312.755 96.0303 313.577 96.941 314.712 97.1556C316.783 97.5627 318.793 95.6236 320.252 94.4353C320.191 95.5204 320.219 96.6196 320.325 97.6942C320.38 98.3375 320.549 99.0723 321.124 99.3371C321.449 99.4893 321.817 99.4365 322.152 99.3511C322.959 99.1371 323.706 98.6652 324.23 98.0297C324.396 99.4264 324.681 100.998 325.865 101.772C326.7 102.317 327.787 102.312 328.779 102.21C332.495 101.817 335.709 100.241 338.926 98.4727C342.084 96.7226 345.618 93.9367 348.064 91.2838C352.437 86.5685 354.968 82.5031 356.467 77.3378C357.913 72.2745 357.491 68.3169 353.581 64.8712C355.2 64.9959 356.817 65.654 358.308 66.9914C359.438 67.9963 360.061 68.885 360.386 69.9111C360.712 70.9372 360.708 72.0681 360.537 73.5502C360.477 74.1662 360.371 74.7753 360.265 75.3843C360.146 76.0831 359.981 76.7748 359.816 77.4666C358.205 83.6264 354.552 89.1996 350.138 94.0556C349.647 94.5952 349.151 95.1154 348.635 95.6417C347.877 96.4154 347.107 97.1504 346.337 97.8854C345.776 98.4047 345.196 98.9302 344.635 99.4496C343.318 100.614 342.003 101.714 340.694 102.77C340.199 103.161 339.685 103.559 339.165 103.938C338.125 104.695 337.046 105.4 335.93 106.053C334.814 106.706 333.68 107.301 332.495 107.806C331.913 108.055 331.311 108.31 330.716 108.521C330.121 108.731 329.501 108.929 328.894 109.1C328.293 109.291 327.654 109.43 327.028 109.544C326.931 109.575 326.828 109.586 326.745 109.592C326.667 109.616 326.564 109.628 326.48 109.633C326.087 109.673 325.682 109.674 325.311 109.514C325.19 109.468 325.082 109.396 324.974 109.324C324.865 109.251 324.77 109.154 324.701 109.069C324.594 108.933 324.499 108.771 324.425 108.603C324.141 108.65 323.877 108.692 323.587 108.72C322.293 108.812 320.985 108.524 319.737 108.154L319.692 108.147Z" fill="black"/>
<path d="M206.842 24.2601L191.199 70.2627L144.418 83.4763C136.951 85.5859 135.141 95.3361 141.357 99.9752L180.294 129.044L178.396 177.59C178.093 185.339 186.812 190.067 193.15 185.592L232.857 157.555L278.466 174.343C285.746 177.023 292.943 170.196 290.645 162.79L276.249 116.393L306.333 78.2236C311.135 72.131 306.865 63.1823 299.107 63.081L250.502 62.4436L223.487 22.0654C219.175 15.6204 209.339 16.9173 206.842 24.2601Z" fill="#FFDF34"/>
<path d="M141.356 99.9761L180.292 129.045L178.395 177.59C178.091 185.339 186.811 190.068 193.149 185.592L232.856 157.556L278.465 174.344C285.745 177.023 292.942 170.196 290.644 162.79L280.331 129.552C269.959 135.627 258.69 140.235 246.714 142.08C228.732 144.85 208.997 140.565 196.863 128.248C189.848 121.128 185.772 111.888 183.146 102.504C180.517 93.1112 179.237 83.378 179.297 73.6254L144.418 83.4781C136.951 85.5876 135.143 95.3378 141.357 99.9779L141.356 99.9761Z" fill="#FFD02B"/>
<path d="M224.028 53.1626C225.258 56.3842 230.626 65.5641 232.521 68.446C239.404 78.9177 248.349 78.7658 257.648 79.3704C259.713 79.5043 261.874 79.4609 263.724 78.5323C265.574 77.6028 267.009 75.567 266.638 73.5324C266.178 71.0049 263.484 69.2605 260.921 69.072C258.562 68.8981 254.66 68.745 250.567 68.4844C246.889 68.2496 243.591 66.1426 241.834 62.9064C239.316 58.2694 235.727 51.7841 234.021 49.2902C232.217 46.6528 229.581 42.8468 225.433 44.5699C222.217 45.9059 222.647 49.5444 224.029 53.1645L224.028 53.1626Z" fill="#FFF9C5"/>
<path d="M279.127 79.2404C276.348 79.6069 273.798 77.6519 273.432 74.8737C273.066 72.0955 275.023 69.5463 277.803 69.1798C280.583 68.8132 283.133 70.7683 283.499 73.5464C283.864 76.3246 281.907 78.8739 279.127 79.2404Z" fill="#FFF9C5"/>
<path d="M7.5397 161.327C7.59799 163.796 9.09407 165.481 11.2799 164.089C13.8252 162.478 16.9922 162.771 19.9163 163.106C22.6365 163.419 25.3469 163.733 28.067 164.047C30.282 164.298 32.5067 164.56 34.7216 164.372C37.5098 164.131 39.9579 163.2 41.8231 160.939C43.1444 159.338 43.9215 157.246 43.9992 155.111C44.0187 154.609 43.9993 154.096 43.805 153.646C43.6398 153.269 43.3678 152.955 43.1055 152.652C42.6489 152.139 42.1826 151.616 41.5803 151.323C40.6962 150.894 39.6859 151.04 38.7241 151.082C37.7624 151.124 36.684 151.009 36.0428 150.224C36.548 150.706 37.3349 150.622 37.9664 150.36C38.5978 150.099 39.1904 149.691 39.851 149.586C41.7649 149.282 43.4358 151.543 45.3399 151.187C46.1559 151.03 46.836 150.402 47.2537 149.628C47.6617 148.853 47.8366 147.964 47.9046 147.075C48.0892 144.94 47.7589 142.763 46.9623 140.807C46.6417 140.022 46.2531 139.268 45.6896 138.661C44.0672 136.914 41.8329 137.092 39.8122 137.741C39.0253 137.992 38.3744 138.578 37.6749 139.028C36.9658 139.478 36.1011 139.813 35.3434 139.499C36.4703 139.373 36.9172 138.693 37.3835 137.741C37.8595 136.757 38.967 136.495 39.7539 135.878C40.8031 135.041 41.3568 133.618 41.454 132.216C41.6677 128.909 39.7733 125.435 37.0726 123.97C35.7708 123.258 34.3719 122.631 32.9147 122.672C31.8266 122.693 30.69 123.164 29.9711 124.064C29.6311 124.483 29.5048 125.131 29.3105 125.644C29.1648 126.031 29.0288 126.408 28.8053 126.753C28.4653 127.287 27.9504 127.674 27.5133 128.114C27.0664 128.553 26.6681 129.108 26.6292 129.757C26.5224 128.93 26.7264 128.072 27.2024 127.413C27.5133 126.973 27.9699 126.607 28.135 126.073C28.2905 125.55 28.3099 124.954 28.4653 124.409C28.8151 123.248 29.3202 122.076 29.1745 120.82C29.0385 119.575 28.2516 118.497 27.2801 117.796C26.3184 117.095 25.1817 116.729 24.0548 116.415C22.549 115.996 20.9947 115.661 19.4403 115.839C18.3911 115.954 17.3711 116.3 16.3801 116.687C15.2629 117.126 14.136 117.639 13.2617 118.518C12.3874 119.387 11.7948 120.695 12.0085 121.95C12.2708 123.541 13.7086 124.755 13.7572 126.377C13.7863 127.214 13.4269 127.999 13.252 128.815C13.0771 129.631 13.1548 130.636 13.8057 131.085C13.1743 131.002 12.7371 130.311 12.6205 129.631C12.5137 128.951 12.6302 128.26 12.6497 127.57C12.6594 126.942 12.5817 126.324 12.4165 125.717C12.2708 125.184 12.0474 124.671 11.7268 124.232C10.5901 122.672 8.42375 122.379 6.6848 123.018C4.40183 123.855 2.46859 125.613 1.7497 128.04C0.875369 130.96 0.671356 134.089 1.21538 137.102C1.67198 139.656 2.63374 142.073 3.54693 144.479C5.58703 149.868 7.44256 155.477 7.5397 161.295C7.5397 161.306 7.5397 161.327 7.5397 161.337V161.327Z" fill="#E0E0E0"/>
<path d="M6.3641 164.968C6.42239 164.633 6.48067 164.298 6.54868 163.963C6.6944 163.179 6.86926 162.404 7.05384 161.63C7.40358 160.196 7.82131 158.784 8.28762 157.392C9.41453 154.096 10.9592 150.915 12.6884 147.933C14.2428 145.243 16.04 142.68 18.0898 140.409C20.8294 137.385 24.1518 135.397 27.7657 133.775C28.3389 133.513 28.2612 134.371 27.9892 134.654C26.6097 136.119 25.1816 137.479 23.6467 139.268C22.4809 140.629 21.218 142.02 20.2465 143.548C18.4007 146.447 17.4292 148.571 16.0011 151.239C14.5731 153.918 13.5045 156.754 12.601 159.684C12.1541 161.107 11.7752 162.561 11.4644 164.026C11.3186 164.706 11.1826 165.387 11.066 166.067C11.0078 166.412 10.9495 166.747 10.9009 167.092C10.7455 168.128 10.5609 168.63 9.95856 169.499C9.57968 170.043 8.93851 170.263 8.33619 170.231C8.10304 170.221 6.51953 169.729 6.70411 169.279C6.17951 168.065 6.02408 166.852 6.24752 165.648C6.28638 165.428 6.31552 165.198 6.35438 164.979L6.3641 164.968Z" fill="#F0F0F0"/>
<path d="M273.034 42.1456C273.118 44.484 271.799 46.1613 269.658 45.0045C267.165 43.6494 264.197 44.1369 261.45 44.6492L253.818 46.0787C251.746 46.467 249.66 46.8554 247.558 46.8223C244.911 46.781 242.549 46.0622 240.662 44.046C239.327 42.6248 238.468 40.6996 238.276 38.6918C238.23 38.2208 238.222 37.7333 238.383 37.2954C238.514 36.9235 238.752 36.6178 238.989 36.3121C239.388 35.7998 239.802 35.271 240.347 34.957C241.153 34.4943 242.119 34.5686 243.032 34.5438C243.945 34.5191 244.957 34.3373 245.517 33.5606C245.065 34.0481 244.321 34.0233 243.715 33.8167C243.101 33.6102 242.526 33.2631 241.889 33.2053C240.071 33.0483 238.613 35.2958 236.803 35.0809C236.028 34.99 235.346 34.4364 234.916 33.7341C234.486 33.0318 234.279 32.2055 234.157 31.3709C233.865 29.3713 234.049 27.2974 234.686 25.3969C234.939 24.6368 235.269 23.8931 235.767 23.2899C237.202 21.53 239.312 21.5548 241.252 22.034C242.012 22.2158 242.656 22.7281 243.347 23.1082C244.037 23.4882 244.873 23.7444 245.579 23.3974C244.513 23.3478 244.045 22.7446 243.554 21.8687C243.047 20.9681 241.989 20.7946 241.214 20.2658C240.171 19.5469 239.572 18.2414 239.404 16.9193C239.012 13.8125 240.608 10.4165 243.07 8.85486C244.259 8.10295 245.54 7.41714 246.921 7.35103C247.949 7.30146 249.046 7.66502 249.775 8.46651C250.12 8.83833 250.281 9.44152 250.488 9.91249C250.642 10.2678 250.803 10.6148 251.025 10.9206C251.378 11.3998 251.877 11.7303 252.322 12.1187C252.767 12.507 253.181 13.0028 253.25 13.6142C253.304 12.8293 253.058 12.0278 252.583 11.4328C252.268 11.0445 251.808 10.7222 251.624 10.2265C251.447 9.74724 251.401 9.17711 251.217 8.68134C250.826 7.60718 250.281 6.53302 250.343 5.34318C250.404 4.1616 251.087 3.0957 251.954 2.36858C252.828 1.64971 253.871 1.22005 254.922 0.856487C256.318 0.360721 257.768 -0.0524186 259.241 0.00542082C260.238 0.0467347 261.213 0.302881 262.171 0.608604C263.253 0.947378 264.342 1.36052 265.217 2.12896C266.091 2.89739 266.72 4.07897 266.598 5.28534C266.437 6.80569 265.148 8.04511 265.194 9.57372C265.217 10.3669 265.593 11.0775 265.808 11.8377C266.022 12.5979 265.999 13.5481 265.416 14.0191C266.015 13.9034 266.383 13.2259 266.452 12.5731C266.521 11.9204 266.36 11.2759 266.314 10.6314C266.268 10.0447 266.314 9.44978 266.429 8.87138C266.536 8.35909 266.72 7.85506 266.997 7.41714C267.978 5.872 270.011 5.45059 271.691 5.9381C273.893 6.57433 275.811 8.11121 276.639 10.3504C277.629 13.0441 277.997 15.9856 277.659 18.8694C277.376 21.3069 276.601 23.6452 275.88 25.9836C274.261 31.1974 272.827 36.6095 273.064 42.1126C273.064 42.1291 273.064 42.1373 273.064 42.1539L273.034 42.1456Z" fill="#E0E0E0"/>
<path d="M274.353 45.5003C274.276 45.1863 274.2 44.8723 274.123 44.5583C273.939 43.8312 273.732 43.1123 273.509 42.3935C273.095 41.0632 272.627 39.7576 272.105 38.4769C270.855 35.4362 269.213 32.5442 267.418 29.8423C265.792 27.4048 263.966 25.1077 261.895 23.0999C259.141 20.4227 255.889 18.7702 252.391 17.4812C251.831 17.2746 251.953 18.0761 252.23 18.324C253.618 19.613 255.037 20.8028 256.587 22.3893C257.761 23.5956 259.034 24.8268 260.039 26.2067C261.949 28.826 262.985 30.7512 264.48 33.1805C265.984 35.6097 267.142 38.2208 268.163 40.9227C268.661 42.2365 269.106 43.5833 269.482 44.9384C269.658 45.5664 269.82 46.2026 269.973 46.8388C270.05 47.1611 270.119 47.4751 270.188 47.7973C270.395 48.7558 270.594 49.2268 271.208 50.0117C271.592 50.4992 272.213 50.6645 272.781 50.5901C272.995 50.5653 274.468 49.9952 274.269 49.5821C274.691 48.4005 274.767 47.252 274.491 46.12C274.445 45.9134 274.399 45.6986 274.345 45.492L274.353 45.5003Z" fill="#F0F0F0"/>
<path d="M160.101 21.1249C161.807 22.6488 164.336 22.411 165.75 20.5737C167.165 18.7364 166.934 16.0128 165.239 14.4889C163.533 12.965 161.004 13.2136 159.59 15.0401C158.175 16.8774 158.406 19.601 160.101 21.1249Z" fill="#E0E0E0"/>
<path d="M179.687 40.8493C180.671 41.7355 182.126 41.5842 182.948 40.5358C183.771 39.4767 183.631 37.9095 182.657 37.0233C181.674 36.137 180.219 36.2884 179.396 37.3367C178.574 38.3959 178.714 39.963 179.687 40.8493Z" fill="#E0E0E0"/>
<path d="M158.817 40.8278C160.121 41.995 162.048 41.8113 163.141 40.4063C164.225 39.0013 164.054 36.9262 162.75 35.7481C161.446 34.5809 159.519 34.7646 158.425 36.1696C157.342 37.5746 157.512 39.6497 158.817 40.8278Z" fill="#E0E0E0"/>
<path d="M340.422 158.472C339.608 160.709 337.276 161.887 335.203 161.086C333.131 160.285 332.106 157.826 332.912 155.594C333.726 153.357 336.062 152.189 338.13 152.981C340.203 153.782 341.227 156.241 340.422 158.472Z" fill="#E0E0E0"/>
<path d="M332.521 186.079C332.056 187.375 330.707 188.04 329.511 187.592C328.31 187.134 327.727 185.715 328.184 184.424C328.65 183.128 329.998 182.463 331.195 182.912C332.396 183.369 332.978 184.788 332.521 186.079Z" fill="#E0E0E0"/>
<path d="M350.63 174.909C350.008 176.621 348.231 177.516 346.635 176.91C345.049 176.299 344.263 174.428 344.88 172.707C345.502 170.994 347.28 170.099 348.875 170.705C350.462 171.317 351.247 173.188 350.63 174.909Z" fill="#E0E0E0"/>
</svg>
