<svg width="728" height="622" viewBox="0 0 728 622" fill="none" xmlns="http://www.w3.org/2000/svg">
<path d="M452 141.5C435.2 64.7001 532.499 23 662.499 85.5C792.499 148 701.392 238 619 362C538.6 483 475.498 629.229 398.999 621C322.499 612.771 316.5 523 331 386C345.5 249 473 237.5 452 141.5Z" fill="white"/>
<path d="M360.996 63.4762C344.524 58.2393 324.373 64.4334 307.26 73.8458C290.137 83.3035 276.08 95.9615 271.669 110.887C267.213 125.804 272.421 143.015 275.275 162.22C278.174 181.434 278.754 202.696 289.638 216.372C300.54 230.076 321.772 236.176 339.705 231.885C357.592 227.586 372.233 212.86 383.376 198.112C394.537 183.392 402.201 168.65 404.88 152.648C407.567 136.601 405.296 119.275 397.755 102.324C390.224 85.3267 377.449 68.686 360.996 63.4762Z" fill="white"/>
<path d="M123.965 98.3918L117.376 179.365L46.8745 219.912C35.6214 226.384 36.6687 242.931 48.6484 247.911L123.696 279.119L140.447 358.596C143.121 371.282 159.199 375.384 167.653 365.538L220.624 303.851L301.48 312.423C314.385 313.791 323.274 299.781 316.521 288.714L274.211 219.381L307.428 145.203C312.73 133.363 302.146 120.601 289.518 123.608L210.4 142.445L150.075 88.0289C140.446 79.3432 125.016 85.4672 123.965 98.3918Z" fill="#FFDF34"/>
<path d="M48.6454 247.912L123.691 279.12L140.444 358.597C143.116 371.283 159.196 375.385 167.65 365.538L220.621 303.853L301.477 312.423C314.382 313.791 323.271 299.781 316.518 288.714L286.207 239.045C271.86 253.134 255.459 265.212 236.783 273.099C208.74 284.94 174.97 286.062 150.251 271.054C135.961 262.38 125.574 249.065 117.48 234.927C109.377 220.774 103.325 205.517 99.4384 189.682L46.8736 219.914C35.6206 226.387 36.6693 242.933 48.6481 247.915L48.6454 247.912Z" fill="#FFD02B"/>
<path d="M163.654 138.222C166.965 142.942 179.425 155.629 183.676 159.527C199.121 173.69 213.572 169.787 228.905 166.965C232.311 166.338 235.8 165.384 238.422 163.122C241.043 160.859 242.539 156.972 241.108 153.825C239.328 149.916 234.245 148.189 230.009 148.931C226.111 149.614 219.717 150.961 212.97 152.212C206.907 153.335 200.696 151.267 196.523 146.739C190.544 140.251 182.071 131.204 178.284 127.859C174.28 124.321 168.449 119.228 162.423 123.717C157.751 127.198 159.935 132.921 163.655 138.225L163.654 138.222Z" fill="#FFF9C5"/>
<path d="M263.704 157.973C259.343 159.703 254.408 157.577 252.679 153.222C250.951 148.868 253.085 143.935 257.445 142.204C261.806 140.474 266.742 142.6 268.47 146.955C270.198 151.309 268.064 156.242 263.704 157.973Z" fill="#FFF9C5"/>
<path d="M445.471 45.66L263.082 186.912C259.023 184.664 254.353 182.903 249.219 181.531L248.767 178.581L421.876 33.7315C427.242 29.3994 445.242 35.526 446.016 40.4947C446.086 40.9856 446.398 42.9534 446.483 43.4628C446.599 44.2421 446.288 44.9834 445.453 45.6743L445.471 45.66Z" fill="#37474F"/>
<path d="M421.878 33.7154C428.094 28.7109 451.235 37.706 445.003 42.7084L262.614 183.96C258.699 181.747 254.029 179.986 248.75 178.579L421.859 33.7296L421.878 33.7154Z" fill="#455A64"/>
<path opacity="0.1" d="M263.334 180.662C263.334 180.662 415.683 63.1862 427.037 54.4685C439.496 44.8951 447.264 40.2057 437.842 36.5565C426.809 32.2689 424.735 35.2443 424.735 35.2443C424.735 35.2443 429.685 34.8143 434.743 37.0407C440.35 39.52 436.583 44.5722 427.344 50.9014C418.104 57.2307 263.351 180.664 263.351 180.664L263.334 180.662Z" fill="white"/>
<path d="M168.057 266.072L167.568 263.151C167.568 263.151 185.873 263.134 207.948 244.554C217.311 238.423 221.022 233.547 223.15 230.013C221.028 230.124 213.586 237.581 205.116 242.696C177.776 259.239 163.82 262.621 163.82 262.621L161.063 260.174L160.574 257.253C160.574 257.253 168.547 259.005 201.403 234.758C211.675 228.528 212.87 225.157 214.358 221.958C212.498 220.54 204.288 228.679 197.197 233.522C167.801 253.558 157.923 256.831 157.923 256.831L153.888 253.871L153.4 250.95C153.4 250.95 159.877 251.164 193.771 224.375C198.884 220.342 203.014 215.686 204.54 212.973C202.085 211.927 198.24 216.687 188.986 224.427C167.014 242.854 149.493 249.835 149.493 249.835L146.119 247.159L145.63 244.238C145.63 244.238 161.479 242.926 195.368 204.253C201.686 196.636 215.044 187.045 225.833 183.905C236.624 180.75 243.72 183.004 248.742 178.512C253.816 179.444 258.386 181.342 262.603 183.909C261.926 184.404 261.355 184.979 260.832 185.56C261.593 185.973 262.355 186.37 263.095 186.814C254.258 193.361 259.257 208.493 253.452 217.805C247.645 227.133 238.579 236.908 215.478 252.481C191.725 268.487 171.422 268.431 171.422 268.431L168.031 266.019L168.057 266.072Z" fill="#37474F"/>
<path d="M167.566 263.167C167.566 263.167 182.222 262.75 207.945 244.57C216.795 238.307 226.112 229.296 223.332 227.295C220.552 225.293 213.552 234.086 204.621 239.824C176.2 258.073 163.324 259.749 163.324 259.749L160.568 257.302C160.568 257.302 171.471 256.388 201.399 234.791C209.753 228.764 216.839 221.112 213.654 218.643C210.469 216.175 203.487 224.954 196.509 230.21C168.391 251.406 157.43 253.942 157.43 253.942L153.395 250.983C153.395 250.983 163.519 248.506 193.767 224.407C201.029 218.623 206.58 212.071 204.245 210.093C201.909 208.116 198.278 213.019 188.491 221.555C164.6 242.395 148.998 246.963 148.998 246.963L145.624 244.287C145.624 244.287 160.357 240.805 195.362 204.302C202.218 197.153 215.038 187.094 225.827 183.954C236.618 180.799 243.714 183.053 248.736 178.561C253.81 179.493 258.379 181.391 262.597 183.958C253.761 190.505 258.76 205.637 252.955 214.949C247.148 224.277 238.081 234.052 214.981 249.626C191.228 265.631 170.925 265.575 170.925 265.575L167.534 263.163L167.566 263.167Z" fill="#455A64"/>
<path opacity="0.1" d="M247.982 203.892C248.848 200.762 249.362 197.521 250.548 194.481C251.731 191.459 253.71 188.571 256.661 187.17C255.493 189.813 254.48 192.542 254.062 195.413C253.76 197.518 253.769 199.647 253.613 201.771C252.931 210.475 248.927 218.804 242.793 224.983C241.747 226.029 234.074 233.34 232.977 230.241C232.536 229.021 235.947 225.968 236.703 224.984C238.231 223.036 239.682 221.028 241.028 218.94C244.03 214.289 246.516 209.255 247.999 203.894L247.982 203.892Z" fill="white"/>
<path d="M198.499 275.5C218.499 250 180.999 204.5 159.999 212L125.999 218.5C154.832 270.5 182.499 283.5 198.499 275.5Z" fill="#FFDF34"/>
<g clip-path="url(#clip0_138_21802)">
<path d="M254.558 92.7433C253.644 94.6578 251.359 95.4791 249.445 94.5622C247.532 93.6452 246.717 91.3528 247.622 89.4423C248.536 87.5278 250.825 86.7152 252.734 87.6234C254.648 88.5404 255.463 90.8328 254.558 92.7433Z" fill="#E0E0E0"/>
<path d="M239.834 102.727C239.279 103.891 237.889 104.39 236.725 103.833C235.562 103.275 235.067 101.881 235.617 100.719C236.172 99.5552 237.564 99.0611 238.726 99.6134C239.889 100.171 240.384 101.565 239.834 102.727Z" fill="#E0E0E0"/>
<path d="M114.204 133.1C113.648 134.264 112.259 134.764 111.095 134.206C109.931 133.649 109.436 132.255 109.986 131.093C110.542 129.929 111.934 129.435 113.095 129.987C114.259 130.545 114.754 131.939 114.204 133.1Z" fill="#E0E0E0"/>
<path d="M236.423 81.0013C235.204 83.5569 232.153 84.6533 229.599 83.4293C227.045 82.2052 225.957 79.1453 227.165 76.595C228.385 74.0394 231.441 72.9547 233.99 74.1671C236.544 75.3911 237.631 78.4511 236.423 81.0013Z" fill="#E0E0E0"/>
<path d="M108.423 158.001C107.204 160.557 104.153 161.653 101.599 160.429C99.0445 159.205 97.9572 156.145 99.1653 153.595C100.385 151.039 103.441 149.955 105.99 151.167C108.544 152.391 109.631 155.451 108.423 158.001Z" fill="#E0E0E0"/>
</g>
<path d="M386.8 228.282C386.677 231.901 384.297 234.35 380.87 232.28C376.879 229.884 371.883 230.271 367.27 230.722C362.979 231.146 358.703 231.569 354.411 231.992C350.917 232.33 347.407 232.684 343.918 232.378C339.527 231.988 335.68 230.59 332.769 227.252C330.707 224.888 329.508 221.81 329.413 218.68C329.389 217.944 329.426 217.193 329.738 216.536C330.003 215.986 330.436 215.53 330.853 215.089C331.579 214.343 332.321 213.583 333.274 213.162C334.673 212.545 336.263 212.773 337.779 212.847C339.294 212.922 340.995 212.768 342.016 211.626C341.213 212.325 339.974 212.191 338.982 211.799C337.99 211.407 337.061 210.801 336.021 210.639C333.009 210.169 330.346 213.459 327.35 212.911C326.066 212.67 325.002 211.741 324.353 210.6C323.72 209.46 323.456 208.154 323.36 206.85C323.096 203.719 323.644 200.533 324.924 197.676C325.44 196.53 326.062 195.432 326.958 194.55C329.537 192.01 333.056 192.301 336.233 193.279C337.47 193.658 338.489 194.526 339.585 195.195C340.697 195.864 342.056 196.366 343.254 195.916C341.48 195.717 340.784 194.714 340.061 193.312C339.323 191.864 337.581 191.466 336.349 190.55C334.705 189.309 333.851 187.216 333.715 185.16C333.421 180.311 336.45 175.245 340.726 173.135C342.787 172.109 344.999 171.208 347.296 171.289C349.01 171.334 350.796 172.04 351.918 173.368C352.448 173.986 352.639 174.939 352.939 175.693C353.164 176.262 353.373 176.816 353.721 177.325C354.25 178.112 355.057 178.687 355.74 179.337C356.439 179.987 357.06 180.805 357.113 181.756C357.292 180.546 356.981 179.286 356.239 178.313C355.755 177.665 355.04 177.122 354.786 176.338C354.548 175.569 354.525 174.694 354.287 173.895C353.75 172.188 352.969 170.463 353.214 168.625C353.445 166.802 354.698 165.233 356.239 164.219C357.763 163.204 359.56 162.683 361.34 162.238C363.718 161.645 366.173 161.175 368.62 161.457C370.272 161.64 371.876 162.159 373.433 162.74C375.188 163.399 376.958 164.166 378.325 165.466C379.692 166.751 380.609 168.676 380.256 170.513C379.823 172.841 377.541 174.6 377.444 176.977C377.387 178.203 377.944 179.358 378.209 180.557C378.474 181.755 378.339 183.226 377.308 183.877C378.304 183.763 379.002 182.757 379.194 181.761C379.371 180.766 379.196 179.752 379.174 178.74C379.167 177.82 379.297 176.916 379.565 176.029C379.802 175.248 380.16 174.5 380.671 173.86C382.483 171.59 385.901 171.19 388.634 172.149C392.221 173.407 395.246 176.009 396.348 179.577C397.689 183.868 397.971 188.456 397.076 192.865C396.323 196.601 394.777 200.13 393.307 203.645C390.023 211.516 387.027 219.711 386.8 228.236C386.8 228.252 386.8 228.282 386.8 228.298L386.8 228.282Z" fill="#E0E0E0"/>
<path d="M388.637 233.656C388.549 233.164 388.461 232.672 388.359 232.18C388.139 231.027 387.874 229.889 387.593 228.751C387.06 226.644 386.42 224.567 385.704 222.52C383.971 217.671 381.579 212.986 378.893 208.589C376.48 204.624 373.682 200.841 370.483 197.483C366.207 193.012 361 190.051 355.33 187.624C354.431 187.233 354.542 188.492 354.967 188.91C357.121 191.077 359.352 193.091 361.747 195.736C363.565 197.746 365.536 199.804 367.047 202.057C369.917 206.333 371.42 209.461 373.635 213.393C375.85 217.341 377.497 221.514 378.882 225.822C379.568 227.915 380.146 230.053 380.617 232.206C380.838 233.205 381.043 234.204 381.218 235.203C381.306 235.71 381.393 236.202 381.465 236.709C381.697 238.231 381.981 238.97 382.919 240.251C383.509 241.054 384.515 241.385 385.464 241.347C385.832 241.335 388.331 240.635 388.046 239.973C388.888 238.2 389.148 236.422 388.812 234.655C388.753 234.332 388.71 233.994 388.652 233.671L388.637 233.656Z" fill="#F0F0F0"/>
<path d="M399.203 234.03C398.163 235.896 398.619 237.858 400.981 237.855C403.728 237.859 406.134 239.575 408.327 241.207C410.367 242.727 412.398 244.242 414.438 245.762C416.1 246.996 417.766 248.243 419.622 249.15C421.96 250.289 424.329 250.753 426.817 249.953C428.579 249.386 430.122 248.195 431.123 246.643C431.36 246.278 431.57 245.887 431.612 245.46C431.646 245.102 431.566 244.74 431.49 244.39C431.35 243.792 431.207 243.182 430.854 242.679C430.335 241.942 429.461 241.573 428.673 241.15C427.885 240.726 427.072 240.13 426.904 239.243C427.097 239.84 427.764 240.15 428.384 240.254C429.005 240.358 429.659 240.334 430.234 240.569C431.899 241.248 432.242 243.72 433.923 244.356C434.645 244.625 435.466 244.479 436.141 244.1C436.808 243.716 437.34 243.137 437.785 242.507C438.872 241.005 439.566 239.229 439.789 237.396C439.877 236.66 439.898 235.915 439.714 235.197C439.184 233.129 437.317 232.205 435.414 231.732C434.674 231.547 433.895 231.676 433.137 231.68C432.371 231.68 431.532 231.52 431.063 230.928C432.021 231.367 432.678 231.072 433.47 230.584C434.284 230.077 435.285 230.406 436.187 230.318C437.395 230.191 438.465 229.394 439.159 228.396C440.785 226.035 440.797 222.553 439.28 220.186C438.551 219.041 437.707 217.912 436.522 217.254C435.642 216.755 434.525 216.568 433.554 216.898C433.097 217.049 432.711 217.472 432.33 217.762C432.043 217.981 431.768 218.197 431.437 218.349C430.93 218.585 430.348 218.63 429.804 218.751C429.253 218.866 428.691 219.091 428.374 219.556C428.652 218.89 429.193 218.347 429.864 218.082C430.306 217.902 430.833 217.845 431.2 217.526C431.555 217.21 431.833 216.775 432.196 216.443C432.987 215.744 433.907 215.11 434.343 214.107C434.782 213.115 434.627 211.941 434.157 210.96C433.696 209.983 432.947 209.173 432.183 208.407C431.162 207.383 430.065 206.399 428.743 205.796C427.852 205.386 426.884 205.161 425.92 204.98C424.832 204.779 423.705 204.628 422.618 204.869C421.536 205.102 420.486 205.795 420.105 206.831C419.615 208.139 420.232 209.723 419.557 210.953C419.212 211.59 418.579 212.004 418.08 212.529C417.581 213.054 417.201 213.839 417.524 214.481C417.055 214.12 417.009 213.4 417.215 212.838C417.429 212.281 417.826 211.822 418.146 211.317C418.43 210.855 418.639 210.358 418.774 209.828C418.892 209.362 418.939 208.875 418.875 208.396C418.652 206.698 417.046 205.456 415.373 205.109C413.178 204.652 410.857 205.047 409.213 206.514C407.229 208.274 405.689 210.506 404.798 213.007C404.04 215.124 403.747 217.378 403.419 219.601C402.681 224.577 401.698 229.63 399.216 234.007C399.212 234.015 399.203 234.03 399.198 234.038L399.203 234.03Z" fill="#E0E0E0"/>
<path d="M396.694 236.262C396.888 236.04 397.082 235.818 397.283 235.6C397.744 235.084 398.224 234.589 398.712 234.099C399.621 233.196 400.576 232.341 401.56 231.524C403.908 229.6 406.54 227.959 409.233 226.554C411.657 225.284 414.22 224.224 416.856 223.501C420.375 222.542 423.905 222.632 427.507 223.133C428.08 223.209 427.641 223.812 427.3 223.894C425.553 224.333 423.814 224.672 421.801 225.279C420.271 225.742 418.65 226.182 417.202 226.861C414.453 228.149 412.744 229.273 410.43 230.586C408.112 231.908 406.012 233.516 404.003 235.273C403.02 236.123 402.078 237.028 401.187 237.973C400.771 238.411 400.364 238.853 399.972 239.305C399.774 239.535 399.58 239.757 399.39 239.992C398.81 240.691 398.442 240.978 397.579 241.34C397.037 241.567 396.428 241.427 395.96 241.119C395.778 241.001 394.728 239.885 395.073 239.637C395.187 238.483 395.595 237.505 396.303 236.714C396.43 236.568 396.555 236.41 396.682 236.265L396.694 236.262Z" fill="#F0F0F0"/>
<path d="M454.558 149.743C453.644 151.658 451.359 152.479 449.445 151.562C447.532 150.645 446.717 148.353 447.622 146.442C448.536 144.528 450.825 143.715 452.735 144.623C454.648 145.54 455.463 147.833 454.558 149.743Z" fill="#E0E0E0"/>
<path d="M439.834 159.726C439.279 160.89 437.889 161.39 436.726 160.832C435.562 160.275 435.067 158.881 435.617 157.719C436.173 156.555 437.565 156.061 438.726 156.613C439.889 157.171 440.385 158.565 439.834 159.726Z" fill="#E0E0E0"/>
<path d="M436.423 138.001C435.203 140.557 432.153 141.653 429.599 140.429C427.044 139.205 425.957 136.145 427.165 133.595C428.385 131.039 431.44 129.955 433.989 131.167C436.544 132.391 437.631 135.451 436.423 138.001Z" fill="#E0E0E0"/>
<defs>
<clipPath id="clip0_138_21802">
<rect width="287.912" height="274.972" fill="white" transform="matrix(-0.929469 0.3689 0.3689 0.929469 267.605 60)"/>
</clipPath>
</defs>
</svg>
