<svg width="226" height="234" viewBox="0 0 226 234" fill="none" xmlns="http://www.w3.org/2000/svg">
<path d="M192.44 154.372C195.114 162.367 191.914 169.644 182.753 167.916C172.096 165.933 161.511 170.838 151.813 175.574C142.794 179.986 133.809 184.387 124.79 188.799C117.441 192.378 110.07 196.003 102.21 198.172C92.3105 200.89 82.7805 200.968 73.7142 196.052C67.2923 192.571 62.1746 186.83 59.4214 180.079C58.7696 178.492 58.2397 176.823 58.3862 175.137C58.5174 173.721 59.0904 172.374 59.642 171.072C60.6203 168.855 61.6199 166.593 63.3568 164.899C65.9072 162.416 69.5633 161.621 72.9301 160.551C76.2968 159.481 79.883 157.762 81.1814 154.442C79.999 156.618 77.1868 157.335 74.7037 157.286C72.2207 157.238 69.7011 156.671 67.3003 157.162C60.3445 158.585 57.2112 167.927 50.228 169.17C47.23 169.688 44.153 168.525 41.8103 166.564C39.5012 164.591 37.8625 161.957 36.5924 159.189C33.4705 152.572 32.0761 145.176 32.5463 137.902C32.7387 134.983 33.2022 132.079 34.4395 129.427C38.0022 121.79 45.9178 119.563 53.6442 119.114C56.6514 118.935 59.5791 119.999 62.516 120.567C65.4865 121.123 68.8591 121.114 71.1079 119.159C67.0739 120.167 64.7404 118.544 62.0231 116.073C59.2357 113.514 55.1104 114.061 51.6769 113.066C47.0827 111.694 43.5156 107.822 41.548 103.446C36.9612 93.1058 39.4522 79.5894 47.064 71.5086C50.7266 67.5961 54.8219 63.8306 59.8979 62.1404C63.676 60.8453 68.1455 60.9328 71.6733 62.9196C73.3336 63.8366 74.5246 65.7598 75.7918 67.1613C76.7453 68.2209 77.6531 69.2591 78.8259 70.0871C80.6202 71.3734 82.8473 71.9707 84.8671 72.8333C86.9205 73.6836 88.9403 74.9641 89.8296 76.9966C89.2359 74.211 87.5331 71.7138 85.1234 70.195C83.5393 69.1743 81.5377 68.5711 80.3467 67.0659C79.2013 65.5821 78.4399 63.6931 77.2702 62.1421C74.7114 58.8539 71.6042 55.7268 70.6451 51.5162C69.6647 47.3513 71.1247 42.9086 73.66 39.4432C76.1618 35.99 79.6567 33.3921 83.179 30.9741C87.8866 27.7462 92.8592 24.7259 98.4288 23.3505C102.182 22.4062 106.104 22.2368 109.973 22.2382C114.339 22.2494 118.823 22.4833 122.863 24.2084C126.891 25.8998 130.458 29.3539 131.182 33.6497C132.129 39.0804 128.582 44.7744 130.303 50.0383C131.177 52.7602 133.33 54.8278 134.884 57.2272C136.437 59.6266 137.339 62.9464 135.617 65.2048C137.698 64.1456 138.402 61.3828 138.012 59.0549C137.589 56.7392 136.383 54.6697 135.512 52.4785C134.748 50.4766 134.297 48.3988 134.16 46.245C134.042 44.3506 134.216 42.426 134.81 40.6148C136.916 34.1901 144.049 30.5379 150.791 30.4084C159.642 30.2355 168.358 33.4546 173.664 40.3423C180.08 48.6131 184.426 58.3946 186.057 68.7433C187.455 77.5056 186.951 86.464 186.602 95.3279C185.838 115.17 185.966 135.485 192.404 154.271C192.416 154.304 192.44 154.372 192.453 154.405L192.44 154.372Z" fill="#E0E0E0"/>
<path d="M200.735 164.582C200.144 163.58 199.553 162.579 198.929 161.59C197.512 159.255 196.008 156.99 194.469 154.737C191.594 150.576 188.508 146.567 185.279 142.687C177.554 133.523 168.522 125.253 159.084 117.851C150.591 111.17 141.406 105.196 131.691 100.478C118.719 94.2066 104.942 91.9884 90.5861 91.3099C88.3042 91.1884 89.5712 93.8436 90.8386 94.4094C97.3032 97.3818 103.814 99.9577 111.192 103.776C116.798 106.68 122.775 109.564 127.905 113.248C137.647 120.236 143.472 125.834 151.505 132.606C159.55 139.411 166.538 147.17 173.066 155.438C176.265 159.444 179.265 163.636 182.043 167.946C183.338 169.945 184.599 171.957 185.793 173.993C186.396 175.028 186.987 176.029 187.556 177.076C189.299 180.205 190.52 181.585 193.609 183.617C195.55 184.888 198.018 184.79 200.059 183.935C200.851 183.61 205.742 180.05 204.581 178.837C204.978 174.287 204.101 170.198 201.929 166.618C201.539 165.961 201.171 165.259 200.781 164.603L200.735 164.582Z" fill="#F0F0F0"/>
</svg>
