<svg width="387" height="396" viewBox="0 0 387 396" fill="none" xmlns="http://www.w3.org/2000/svg">
<g clip-path="url(#clip0_138_21578)">
<path d="M65.1817 258.003L153.277 269.327L193.963 348.389C200.458 361.008 218.582 360.708 224.631 347.879L262.54 267.511L350.191 253.269C364.181 250.996 369.48 233.647 359.158 223.912L294.491 162.917L307.975 75.052C310.127 61.0278 295.28 50.6061 282.85 57.4169L204.974 100.089L125.658 60.0306C112.998 53.6364 98.5209 64.5438 101.161 78.4884L117.699 165.854L55.1957 228.96C45.2191 239.033 51.1203 256.196 65.1817 258.003Z" fill="#FFDF34"/>
<path d="M224.633 347.88L262.541 267.514L350.192 253.271C364.182 250.999 369.482 233.648 359.159 223.913L294.494 162.918L307.976 75.0534C310.128 61.0292 295.281 50.6075 282.851 57.4183L227.062 87.9874C241.717 104.374 254.071 122.902 261.732 143.7C273.234 174.929 272.738 211.867 255.087 238.097C244.885 253.261 229.815 263.925 213.961 272.044C198.092 280.172 181.122 286.003 163.63 289.44L193.966 348.388C200.461 361.007 218.585 360.705 224.636 347.877L224.633 347.88Z" fill="#FFD02B"/>
<path d="M110.704 216.687C116.028 213.312 130.519 200.352 134.993 195.908C151.247 179.762 147.721 163.781 145.422 146.892C144.911 143.14 144.047 139.281 141.71 136.303C139.373 133.325 135.204 131.493 131.694 132.896C127.334 134.64 125.189 140.103 125.784 144.767C126.33 149.058 127.475 156.11 128.497 163.542C129.415 170.221 126.84 176.898 121.682 181.225C114.291 187.424 103.98 196.216 100.133 200.181C96.0648 204.373 90.2059 210.482 94.8014 217.292C98.3641 222.571 104.726 220.478 110.708 216.686L110.704 216.687Z" fill="#FFF9C5"/>
<path d="M137.375 108.432C139.043 113.282 136.469 118.564 131.625 120.23C126.782 121.895 121.503 119.313 119.835 114.463C118.168 109.612 120.742 104.33 125.586 102.665C130.429 101 135.708 103.581 137.375 108.432Z" fill="#FFF9C5"/>
</g>
<defs>
<clipPath id="clip0_138_21578">
<rect width="314.77" height="300.623" fill="white" transform="matrix(0.325152 0.945662 0.945662 -0.325152 0 97.748)"/>
</clipPath>
</defs>
</svg>
