<svg width="159" height="160" viewBox="0 0 159 160" fill="none" xmlns="http://www.w3.org/2000/svg">
<g clip-path="url(#clip0_138_21563)">
<path d="M35.9123 51.1266L49.2492 80.8868L32.2855 108.781C29.5781 113.234 33.1455 118.852 38.3226 118.288L70.7579 114.758L92.0164 139.48C95.4096 143.426 101.858 141.76 102.929 136.662L109.639 104.72L139.741 92.1035C144.545 90.0897 144.964 83.4424 140.449 80.8548L112.16 64.6434L109.504 32.1257C109.081 26.9352 102.89 24.4917 99.029 27.9911L74.8369 49.914L43.0943 42.4331C38.0277 41.2389 33.7835 46.3764 35.9123 51.1266Z" fill="#FFDF34"/>
<path d="M38.3227 118.289L70.7571 114.759L92.016 139.48C95.4088 143.427 101.859 141.761 102.929 136.663L109.639 104.721L139.74 92.104C144.545 90.0903 144.963 83.443 140.448 80.8554L120.183 69.2418C117.859 76.9721 114.424 84.392 109.379 90.7772C101.802 100.364 90.139 107.288 78.5416 106.787C71.8372 106.498 65.6091 103.822 60.0282 100.413C54.4413 97.0006 49.3628 92.8034 44.934 87.984L32.2865 108.782C29.579 113.235 33.1468 118.853 38.3241 118.29L38.3227 118.289Z" fill="#FFD02B"/>
<path d="M57.576 57.4655C59.6533 58.4859 66.4896 60.5405 68.7387 61.0898C76.9103 63.0863 81.2396 58.9193 86.0885 54.9623C87.1653 54.0832 88.2083 53.073 88.6934 51.7706C89.178 50.4677 88.9529 48.8109 87.8408 47.9806C86.4589 46.9494 84.3371 47.3245 82.9903 48.4046C81.751 49.3982 79.762 51.1083 77.6303 52.8527C75.7142 54.4201 73.1296 54.8933 70.786 54.1072C67.4282 52.9807 62.6985 51.4362 60.7194 50.9913C58.6269 50.5206 55.5909 49.8564 54.3387 52.6008C53.3682 54.7283 55.2428 56.3196 57.577 57.4663L57.576 57.4655Z" fill="#FFF9C5"/>
<path d="M96.5915 45.0715C95.392 46.5233 93.2444 46.7293 91.7946 45.5316C90.3447 44.3338 90.1417 42.1859 91.3412 40.734C92.5406 39.2822 94.6883 39.0762 96.1381 40.2739C97.5879 41.4717 97.7909 43.6196 96.5915 45.0715Z" fill="#FFF9C5"/>
</g>
<defs>
<clipPath id="clip0_138_21563">
<rect width="115.574" height="110.38" fill="white" transform="matrix(-0.636903 0.770944 0.770944 0.636903 73.6096 0)"/>
</clipPath>
</defs>
</svg>
